<?xml version="1.0" encoding="UTF-8" standalone="no"?>
<!DOCTYPE svg PUBLIC "-//W3C//DTD SVG 1.1//EN"
 "http://www.w3.org/Graphics/SVG/1.1/DTD/svg11.dtd">
<!-- Generated by graphviz version 14.1.5 (0)
 -->
<!-- Title: ERD Pages: 1 -->
<svg width="688pt" height="601pt"
 viewBox="0.00 0.00 688.00 601.00" xmlns="http://www.w3.org/2000/svg" xmlns:xlink="http://www.w3.org/1999/xlink">
<g id="graph0" class="graph" transform="scale(1 1) rotate(0) translate(4 596.75)">
<title>ERD</title>
<polygon fill="#1a1a1a" stroke="none" points="-4,4 -4,-596.75 684.25,-596.75 684.25,4 -4,4"/>
<text xml:space="preserve" text-anchor="middle" x="340.12" y="-571.65" font-family="Times,serif" font-size="18.00" fill="#d3d1c7">PRISM — model danych progresu (Stage 3/5) &#160;· &#160;localStorage najpierw, potem SQLite</text>
<!-- book -->
<g id="node1" class="node">
<title>book</title>
<polygon fill="#085041" stroke="none" points="8,-239.62 8,-324.12 210.25,-324.12 210.25,-239.62 8,-239.62"/>
<polygon fill="#074538" stroke="none" points="9,-296.12 9,-323.12 209.25,-323.12 209.25,-296.12 9,-296.12"/>
<text xml:space="preserve" text-anchor="start" x="15" y="-305.77" font-family="Helvetica,sans-Serif" font-weight="bold" font-size="13.00" fill="#9fe1cb">collection (książka, w Qdrant)</text>
<text xml:space="preserve" text-anchor="start" x="15" y="-277.38" font-family="Helvetica,sans-Serif" font-size="14.00" fill="#5dcaa5">*name</text>
<text xml:space="preserve" text-anchor="start" x="142.5" y="-277.38" font-family="Helvetica,sans-Serif" font-size="14.00" fill="#9fe1cb">TEXT pk</text>
<text xml:space="preserve" text-anchor="start" x="15" y="-249.62" font-family="Helvetica,sans-Serif" font-size="14.00" fill="#5dcaa5">documents_count</text>
<text xml:space="preserve" text-anchor="start" x="142.5" y="-249.62" font-family="Helvetica,sans-Serif" font-size="14.00" fill="#9fe1cb">INT</text>
<polygon fill="none" stroke="#5dcaa5" points="8,-239.62 8,-324.12 210.25,-324.12 210.25,-239.62 8,-239.62"/>
</g>
<!-- topic -->
<g id="node2" class="node">
<title>topic</title>
<polygon fill="#0c447c" stroke="none" points="277.25,-225.75 277.25,-338 413.5,-338 413.5,-225.75 277.25,-225.75"/>
<polygon fill="#0a3a6b" stroke="none" points="278.25,-310 278.25,-337 412.5,-337 412.5,-310 278.25,-310"/>
<text xml:space="preserve" text-anchor="start" x="284.25" y="-319.65" font-family="Helvetica,sans-Serif" font-weight="bold" font-size="13.00" fill="#b5d4f4">topic (z list_topics)</text>
<text xml:space="preserve" text-anchor="start" x="284.25" y="-291.25" font-family="Helvetica,sans-Serif" font-size="14.00" fill="#85b7eb">+collection</text>
<text xml:space="preserve" text-anchor="start" x="366.38" y="-291.25" font-family="Helvetica,sans-Serif" font-size="14.00" fill="#b5d4f4">TEXT</text>
<text xml:space="preserve" text-anchor="start" x="284.25" y="-263.5" font-family="Helvetica,sans-Serif" font-size="14.00" fill="#85b7eb">*chapter</text>
<text xml:space="preserve" text-anchor="start" x="366.38" y="-263.5" font-family="Helvetica,sans-Serif" font-size="14.00" fill="#b5d4f4">TEXT</text>
<text xml:space="preserve" text-anchor="start" x="284.25" y="-235.75" font-family="Helvetica,sans-Serif" font-size="14.00" fill="#85b7eb">title</text>
<text xml:space="preserve" text-anchor="start" x="366.38" y="-235.75" font-family="Helvetica,sans-Serif" font-size="14.00" fill="#b5d4f4">TEXT</text>
<polygon fill="none" stroke="#85b7eb" points="277.25,-225.75 277.25,-338 413.5,-338 413.5,-225.75 277.25,-225.75"/>
</g>
<!-- book&#45;&gt;topic -->
<g id="edge1" class="edge">
<title>book&#45;&gt;topic</title>
<path fill="none" stroke="#9c9a92" stroke-width="1.2" d="M217.99,-281.88C231.32,-281.88 244.82,-281.88 257.77,-281.88"/>
<polygon fill="#9c9a92" stroke="#9c9a92" stroke-width="1.2" points="257.68,-285.38 267.68,-281.88 257.68,-278.38 257.68,-285.38"/>
<text xml:space="preserve" text-anchor="middle" x="243.75" y="-284.38" font-family="Helvetica,sans-Serif" font-size="10.00" fill="#b4b2a9">1..*</text>
</g>
<!-- reading -->
<g id="node3" class="node">
<title>reading</title>
<polygon fill="#3c3489" stroke="none" points="490.62,-392 490.62,-559.75 663.62,-559.75 663.62,-392 490.62,-392"/>
<polygon fill="#332d77" stroke="none" points="491.62,-531.75 491.62,-558.75 662.62,-558.75 662.62,-531.75 491.62,-531.75"/>
<text xml:space="preserve" text-anchor="start" x="520.12" y="-541.4" font-family="Helvetica,sans-Serif" font-weight="bold" font-size="13.00" fill="#cecbf6">reading_progress</text>
<text xml:space="preserve" text-anchor="start" x="497.62" y="-513" font-family="Helvetica,sans-Serif" font-size="14.00" fill="#afa9ec">*id</text>
<text xml:space="preserve" text-anchor="start" x="583.88" y="-513" font-family="Helvetica,sans-Serif" font-size="14.00" fill="#cecbf6">pk</text>
<text xml:space="preserve" text-anchor="start" x="497.62" y="-485.25" font-family="Helvetica,sans-Serif" font-size="14.00" fill="#afa9ec">+collection</text>
<text xml:space="preserve" text-anchor="start" x="583.88" y="-485.25" font-family="Helvetica,sans-Serif" font-size="14.00" fill="#cecbf6">TEXT</text>
<text xml:space="preserve" text-anchor="start" x="497.62" y="-457.5" font-family="Helvetica,sans-Serif" font-size="14.00" fill="#afa9ec">+chapter</text>
<text xml:space="preserve" text-anchor="start" x="583.88" y="-457.5" font-family="Helvetica,sans-Serif" font-size="14.00" fill="#cecbf6">TEXT</text>
<text xml:space="preserve" text-anchor="start" x="497.62" y="-429.75" font-family="Helvetica,sans-Serif" font-size="14.00" fill="#afa9ec">status</text>
<text xml:space="preserve" text-anchor="start" x="583.88" y="-429.75" font-family="Helvetica,sans-Serif" font-size="14.00" fill="#cecbf6">read|unread</text>
<text xml:space="preserve" text-anchor="start" x="497.62" y="-402" font-family="Helvetica,sans-Serif" font-size="14.00" fill="#afa9ec">last_read_at</text>
<text xml:space="preserve" text-anchor="start" x="583.88" y="-402" font-family="Helvetica,sans-Serif" font-size="14.00" fill="#cecbf6">TS</text>
<polygon fill="none" stroke="#afa9ec" points="490.62,-392 490.62,-559.75 663.62,-559.75 663.62,-392 490.62,-392"/>
</g>
<!-- topic&#45;&gt;reading -->
<g id="edge2" class="edge">
<title>topic&#45;&gt;reading</title>
<path fill="none" stroke="#9c9a92" stroke-width="1.2" d="M417.5,-341.93C435.36,-357.01 454.88,-373.5 473.93,-389.58"/>
<polygon fill="#9c9a92" stroke="#9c9a92" stroke-width="1.2" points="471.65,-392.24 481.55,-396.02 476.17,-386.89 471.65,-392.24"/>
<text xml:space="preserve" text-anchor="middle" x="447.75" y="-375.56" font-family="Helvetica,sans-Serif" font-size="10.00" fill="#b4b2a9">1..1</text>
</g>
<!-- attempt -->
<g id="node4" class="node">
<title>attempt</title>
<polygon fill="#633806" stroke="none" points="512,-198 512,-365.75 642.25,-365.75 642.25,-198 512,-198"/>
<polygon fill="#5a3205" stroke="none" points="513,-337.75 513,-364.75 641.25,-364.75 641.25,-337.75 513,-337.75"/>
<text xml:space="preserve" text-anchor="start" x="535.88" y="-347.4" font-family="Helvetica,sans-Serif" font-weight="bold" font-size="13.00" fill="#fac775">quiz_attempt</text>
<text xml:space="preserve" text-anchor="start" x="519" y="-319" font-family="Helvetica,sans-Serif" font-size="14.00" fill="#ef9f27">*id</text>
<text xml:space="preserve" text-anchor="start" x="600.75" y="-319" font-family="Helvetica,sans-Serif" font-size="14.00" fill="#fac775">pk</text>
<text xml:space="preserve" text-anchor="start" x="519" y="-291.25" font-family="Helvetica,sans-Serif" font-size="14.00" fill="#ef9f27">+collection</text>
<text xml:space="preserve" text-anchor="start" x="600.75" y="-291.25" font-family="Helvetica,sans-Serif" font-size="14.00" fill="#fac775">TEXT</text>
<text xml:space="preserve" text-anchor="start" x="519" y="-263.5" font-family="Helvetica,sans-Serif" font-size="14.00" fill="#ef9f27">+chapter</text>
<text xml:space="preserve" text-anchor="start" x="600.75" y="-263.5" font-family="Helvetica,sans-Serif" font-size="14.00" fill="#fac775">TEXT</text>
<text xml:space="preserve" text-anchor="start" x="519" y="-235.75" font-family="Helvetica,sans-Serif" font-size="14.00" fill="#ef9f27">score / total</text>
<text xml:space="preserve" text-anchor="start" x="600.75" y="-235.75" font-family="Helvetica,sans-Serif" font-size="14.00" fill="#fac775">INT</text>
<text xml:space="preserve" text-anchor="start" x="519" y="-208" font-family="Helvetica,sans-Serif" font-size="14.00" fill="#ef9f27">taken_at</text>
<text xml:space="preserve" text-anchor="start" x="600.75" y="-208" font-family="Helvetica,sans-Serif" font-size="14.00" fill="#fac775">TS</text>
<polygon fill="none" stroke="#ef9f27" points="512,-198 512,-365.75 642.25,-365.75 642.25,-198 512,-198"/>
</g>
<!-- topic&#45;&gt;attempt -->
<g id="edge3" class="edge">
<title>topic&#45;&gt;attempt</title>
<path fill="none" stroke="#9c9a92" stroke-width="1.2" d="M421.29,-281.88C444.03,-281.88 469.15,-281.88 492.43,-281.88"/>
<polygon fill="#9c9a92" stroke="#9c9a92" stroke-width="1.2" points="492.24,-285.38 502.24,-281.88 492.24,-278.38 492.24,-285.38"/>
<text xml:space="preserve" text-anchor="middle" x="447.75" y="-284.38" font-family="Helvetica,sans-Serif" font-size="10.00" fill="#b4b2a9">1..*</text>
</g>
<!-- fsrs -->
<g id="node5" class="node">
<title>fsrs</title>
<polygon fill="#712b13" stroke="none" points="482,-4 482,-171.75 672.25,-171.75 672.25,-4 482,-4"/>
<polygon fill="#5f230f" stroke="none" points="483,-143.75 483,-170.75 671.25,-170.75 671.25,-143.75 483,-143.75"/>
<text xml:space="preserve" text-anchor="start" x="516.38" y="-153.4" font-family="Helvetica,sans-Serif" font-weight="bold" font-size="13.00" fill="#f5c4b3">fsrs_card (Stage 5)</text>
<text xml:space="preserve" text-anchor="start" x="489" y="-125" font-family="Helvetica,sans-Serif" font-size="14.00" fill="#f0997b">*id</text>
<text xml:space="preserve" text-anchor="start" x="630" y="-125" font-family="Helvetica,sans-Serif" font-size="14.00" fill="#f5c4b3">pk</text>
<text xml:space="preserve" text-anchor="start" x="489" y="-97.25" font-family="Helvetica,sans-Serif" font-size="14.00" fill="#f0997b">+collection / +chapter</text>
<text xml:space="preserve" text-anchor="start" x="630" y="-97.25" font-family="Helvetica,sans-Serif" font-size="14.00" fill="#f5c4b3">TEXT</text>
<text xml:space="preserve" text-anchor="start" x="489" y="-69.5" font-family="Helvetica,sans-Serif" font-size="14.00" fill="#f0997b">due</text>
<text xml:space="preserve" text-anchor="start" x="630" y="-69.5" font-family="Helvetica,sans-Serif" font-size="14.00" fill="#f5c4b3">TS</text>
<text xml:space="preserve" text-anchor="start" x="489" y="-41.75" font-family="Helvetica,sans-Serif" font-size="14.00" fill="#f0997b">stability / difficulty</text>
<text xml:space="preserve" text-anchor="start" x="630" y="-41.75" font-family="Helvetica,sans-Serif" font-size="14.00" fill="#f5c4b3">REAL</text>
<text xml:space="preserve" text-anchor="start" x="489" y="-14" font-family="Helvetica,sans-Serif" font-size="14.00" fill="#f0997b">reps / lapses / state</text>
<text xml:space="preserve" text-anchor="start" x="630" y="-14" font-family="Helvetica,sans-Serif" font-size="14.00" fill="#f5c4b3">INT</text>
<polygon fill="none" stroke="#f0997b" points="482,-4 482,-171.75 672.25,-171.75 672.25,-4 482,-4"/>
</g>
<!-- topic&#45;&gt;fsrs -->
<g id="edge4" class="edge">
<title>topic&#45;&gt;fsrs</title>
<path fill="none" stroke="#9c9a92" stroke-width="1.2" d="M417.5,-221.82C432.62,-209.05 448.93,-195.28 465.14,-181.59"/>
<polygon fill="#9c9a92" stroke="#9c9a92" stroke-width="1.2" points="467.36,-184.3 472.74,-175.18 462.84,-178.95 467.36,-184.3"/>
<text xml:space="preserve" text-anchor="middle" x="447.75" y="-204.75" font-family="Helvetica,sans-Serif" font-size="10.00" fill="#b4b2a9">1..*</text>
</g>
</g>
</svg>
